<?xml version="1.0" encoding="utf-8"?>
<!-- Generator: Adobe Illustrator 18.0.0, SVG Export Plug-In . SVG Version: 6.00 Build 0)  -->
<!DOCTYPE svg PUBLIC "-//W3C//DTD SVG 1.1//EN" "http://www.w3.org/Graphics/SVG/1.1/DTD/svg11.dtd">
<svg version="1.1" id="Layer_1" xmlns="http://www.w3.org/2000/svg" xmlns:xlink="http://www.w3.org/1999/xlink" x="0px" y="0px"
	 width="1400px" height="980px" viewBox="0 0 1400 980" enable-background="new 0 0 1400 980" xml:space="preserve">
<g>
	<g>
		<path fill="#CB8D5A" d="M454.2,277.3c0-48.6-57.6-88-128.7-88s-128.7,39.4-128.7,88c0,14.5,5.1,28.1,14.1,40.1
			c8.4,11.2,14.2,24.1,17.4,37.8c13.2,56.2,51.7,107.4,97.1,107.4s83.9-51.3,97.1-107.4c3.2-13.6,9-26.6,17.4-37.8
			C449.1,305.4,454.2,291.7,454.2,277.3z"/>
		<g>
			<path fill="none" d="M224.8,343c0.3,2.3,0.7,4.6,1.2,6.8c2.3,12.2,5.6,24.3,9.3,36.2c1.2,3.7,2.5,7.3,3.9,11
				c3,3.7,6.4,7.1,9.9,10.3c-9.2-15.8-16.3-33.7-20.6-52.2C227.5,351,226.2,347,224.8,343z"/>
			<path fill="#B57748" d="M224.8,343c-2.8-18.5-2.7-37.2,2.4-55.4c2.5-9,6.5-17.3,11.7-25c5.6-8.4,13.4-14.5,20.4-21.6
				c7.5-7.7,12.5-16.8,12.5-27.8c0-5.1-1.6-10.3-4.5-14.5c-5.7,2-11.1,4.2-16.2,6.7c9.5,12.1-12.3,26.6-19.8,34.1
				c-14.2,14.2-22.8,33.5-26.7,53c-0.8,3.7-1.3,7.5-1.8,11.3c2.2,4.7,4.9,9.2,8.1,13.5C216.9,325.2,221.5,333.9,224.8,343z"/>
			<path fill="#B57748" d="M419.2,256.2c-6.3-8.4-13-16.4-17.9-25.7c-2.2-4.2-3.7-9.1-4.1-13.8c-0.4-4.4-1.4-8.5-0.2-12.6
				c-1.8-0.8-3.7-1.7-5.6-2.4c-2.6,3.2-4.7,6.5-6.1,10.6c-2.2,6.3-1,13.6,0.5,19.9c3.2,13.5,12.6,24.4,20.1,35.8
				c7.8,11.9,11.8,24.5,12,38.7c0.2,14.9-3.9,29.5-8.7,43.5c-8.8,25.8-19.9,53-38.3,73.5c-16.4,18.2-41.8,30.8-66.4,23.2
				c-15-4.7-27.9-16.6-39.9-26.3c-5.3-4.3-10.7-8.5-15.7-13c18.7,32.1,46,55.2,76.5,55.2c45.4,0,83.9-51.3,97.1-107.4
				c2.7-11.4,7.1-22.2,13.4-32c0.2-1.5,0.4-3,0.5-4.5C439,295.9,433,274.5,419.2,256.2z"/>
		</g>
		<path fill="#A86838" d="M337.8,298.2c1.1,9-2.8,18.1-1.9,27.2c0.8,8.5,5.6,16,10.4,23.1c6.2,9.4,14,19.7,25.2,20.4
			c11.1,0.7,20-8.5,27.3-16.9c6.3-7.3,12.5-14.6,17.2-23c4.6-8.4,7.6-18,6.6-27.5c-0.7-6.4-3-12.5-5.4-18.6
			c-2.4-6.1-5-12.5-9.9-16.7c-4.6-3.9-10.6-5.6-16.3-7.1c-8-2.2-16.4-4.3-24.6-2.9c-6.9,1.2-13,5-19,8.6c-5,3.1-10.4,6.6-12.2,12.2
			C332.9,284,336.9,291.1,337.8,298.2z"/>
		<g>
			<circle fill="#29180F" cx="382.4" cy="305.9" r="14.5"/>
			<circle fill="#FFFFFF" cx="377.5" cy="301.1" r="4.8"/>
			<circle fill="#FFFFFF" cx="388.4" cy="311.2" r="2.9"/>
		</g>
		<g>
			<circle fill="#29180F" cx="268.7" cy="305.9" r="14.5"/>
			<circle fill="#FFFFFF" cx="263.9" cy="301.1" r="4.8"/>
			<circle fill="#FFFFFF" cx="274.7" cy="311.2" r="2.9"/>
		</g>
		<path fill="#29180F" d="M347.2,387.4c0,10.4-9.7,24.5-21.7,24.5c-12,0-21.7-14.1-21.7-24.5s9.7-13.2,21.7-13.2
			C337.5,374.3,347.2,377,347.2,387.4z"/>
		<path fill="#A86838" d="M430.2,311.1c0.6-24.1-8.5-48.4-24.9-66.1c-7.9-8.5-17.7-16.3-20.5-27.5c-3.6-14.3,7.5-30,21.9-33
			c17.2-3.6,33.6,8,47.4,18.9c23,18.1,45.9,36.3,68.9,54.4c10.1,8,21.2,17.9,21.1,30.9c-0.1,12.6-10.8,22.2-19.2,31.7
			c-18.3,20.9-27.4,48.1-41.7,72c-5.6,9.3-12.5,18.6-22.5,23c-7.5,3.3-16.1,3.5-24.3,2.7c-8.1-0.8-16.9-3-21.4-9.7
			c-4.6-6.8-3.5-15.8-1.6-23.8C418.9,360,429.5,336.3,430.2,311.1z"/>
		<path fill="#A86838" d="M212.3,311.1c-0.6-24.1,8.5-48.4,24.9-66.1c7.9-8.5,17.7-16.3,20.5-27.5c3.6-14.3-7.5-30-21.9-33
			c-17.2-3.6-33.6,8-47.4,18.9c-23,18.1-45.9,36.3-68.9,54.4c-10.1,8-21.2,17.9-21.1,30.9c0.1,12.6,10.8,22.2,19.2,31.7
			c18.3,20.9,27.4,48.1,41.7,72c5.6,9.3,12.5,18.6,22.5,23c7.5,3.3,16.1,3.5,24.3,2.7c8.1-0.8,16.9-3,21.4-9.7
			c4.6-6.8,3.5-15.8,1.6-23.8C223.5,360,212.9,336.3,212.3,311.1z"/>
		<g>
			<path fill="#29180F" d="M329.9,438.2v-27.9c0-2.4-1.9-4.3-4.3-4.3c-2.4,0-4.3,1.9-4.3,4.3v27.9c-7.2,3.9-30.5,13-60.4-13.3
				c6.3,8.1,13.2,15.2,20.6,21c6.3,2.4,13.1,3.9,20.3,3.9c1.3,0,2.5,0,3.8-0.1c9.7-0.7,16.7-4.1,20-6c3.3,1.9,10.3,5.2,20,6
				c1.3,0.1,2.6,0.1,3.8,0.1c7.2,0,14-1.5,20.3-3.9c7.4-5.8,14.3-12.9,20.6-21C360.3,451.2,337.1,442.1,329.9,438.2z"/>
		</g>
	</g>
	<g>
		<g>
			<g>
				<path fill="#DD4B4B" d="M1290.5,393.3c-104.1,21.9-209.4,21.9-313.4,0c-7.5-1.6-12.3-8.2-10.8-14.5
					c6.3-26.1,12.5-52.1,18.8-78.2c1.5-6.3,7.9-10.2,14.3-8.8c89.4,18.7,179.4,18.7,268.8,0c6.4-1.4,12.8,2.4,14.3,8.8
					c6.3,26.1,12.5,52.1,18.8,78.2C1302.8,385.1,1298,391.7,1290.5,393.3z"/>
			</g>
			<g>
				<path fill="#BF3C3C" d="M1301.3,378.8c-6.3-26.1-12.5-52.1-18.8-78.2c-1.5-6.3-7.9-10.2-14.3-8.8c-11.2,2.3-22.4,4.4-33.7,6.1
					c0.6,2.6,1.2,5.2,1.7,7.8c2.2,10.9,4.2,21.8,6.1,32.7c1.9,10.9,3.6,21.9,5.3,32.9c1.5,9.5,2,19.6,4.1,29
					c12.9-2,25.8-4.4,38.7-7.1C1298,391.7,1302.8,385.1,1301.3,378.8z"/>
			</g>
			<ellipse fill="#6B0A0A" cx="1133.8" cy="293.5" rx="143" ry="16.8"/>
		</g>
		<g>
			<path fill="#FFFFFF" d="M1149.8,367.9c-1.3-0.6-2.3-1.6-2.9-2.9c-2.3-4.9-7.3-8.3-13.1-8.3s-10.8,3.4-13.1,8.3
				c-0.6,1.3-1.6,2.3-2.9,2.9c-5,2.3-8.4,7.4-8.3,13.3c0.1,7.7,6.3,14,14,14.3c2.7,0.1,5.3-0.6,7.5-1.8c1.8-1,4-1,5.8,0
				c2.2,1.2,4.8,1.9,7.5,1.8c7.7-0.2,13.9-6.6,14-14.3C1158.2,375.3,1154.8,370.2,1149.8,367.9z"/>
			<path fill="#FFFFFF" d="M1143.7,357.4c5,1,10-2.8,11.5-10.5c1.6-7.7-0.9-16.5-5.9-17.5c-5-1-10.6,6.1-12.2,13.9
				C1135.5,351,1138.7,356.4,1143.7,357.4z"/>
			<path fill="#FFFFFF" d="M1162.9,349.7c-3.9-0.8-8.3,4.8-9.5,10.8c-1.2,6,1.2,10.2,5.1,11c3.9,0.8,7.8-2.1,9-8.2
				C1168.7,357.4,1166.8,350.5,1162.9,349.7z"/>
			<path fill="#FFFFFF" d="M1123.9,357.4c5-1,8.1-6.4,6.6-14.1c-1.6-7.7-7.2-14.9-12.2-13.9c-5,1-7.5,9.8-5.9,17.5
				C1113.9,354.7,1118.9,358.4,1123.9,357.4z"/>
			<path fill="#FFFFFF" d="M1114.1,360.5c-1.2-6-5.6-11.6-9.5-10.8c-3.9,0.8-5.8,7.6-4.6,13.6c1.2,6,5.1,8.9,9,8.2
				C1112.9,370.8,1115.3,366.6,1114.1,360.5z"/>
		</g>
	</g>
	<g>
		<g>
			<path fill="#A86838" d="M400,702.9c-6-2.8-10.8-7.6-13.6-13.7c-10.7-22.9-33.8-38.7-60.8-38.8c-26.9,0-50.1,15.8-60.8,38.7
				c-2.8,6-7.6,10.8-13.7,13.6c-23.1,10.8-39.1,34.3-38.8,61.6c0.4,35.7,29.2,65.1,64.9,66.3c12.6,0.4,24.5-2.7,34.8-8.4
				c8.4-4.7,18.6-4.7,27,0c10.2,5.7,22.1,8.8,34.8,8.4c35.7-1.1,64.5-30.5,65-66.2C439,737.3,423.1,713.7,400,702.9z"/>
			<path fill="#A86838" d="M371.6,654.2c23.2,4.7,46.3-12.7,53.6-48.6c7.2-35.9-4.1-76.6-27.3-81.3c-23.2-4.7-49.5,28.4-56.7,64.3
				C333.8,624.5,348.4,649.5,371.6,654.2z"/>
			<path fill="#A86838" d="M461,618.5c-18.1-3.7-38.6,22.2-44.2,50.1c-5.6,28,5.7,47.5,23.8,51.1s36.1-9.9,41.8-37.9
				C487.9,653.9,479.1,622.2,461,618.5z"/>
			<path fill="#A86838" d="M279.5,654.1c23.2-4.6,37.8-29.7,30.6-65.5c-7.2-35.9-33.4-69-56.6-64.4c-23.2,4.6-34.6,45.4-27.5,81.2
				C233.3,641.3,256.3,658.8,279.5,654.1z"/>
			<path fill="#A86838" d="M234.3,668.5c-5.6-28-26-53.8-44.1-50.2s-27,35.4-21.4,63.3c5.6,28,23.6,41.6,41.7,38
				C228.6,716,239.9,696.5,234.3,668.5z"/>
		</g>
		<g>
			<path fill="#8E5026" d="M371.6,654.2c23.2,4.7,46.3-12.7,53.6-48.6c3.4-16.7,2.7-34.5-1.3-49.2c-0.6,2.4-1.5,4.8-1.9,7.4
				c-0.6,3.4-0.7,6.9-1.1,10.3c-0.8,7.7-2.1,15.4-4.1,22.9c-3.4,12.3-10.2,23.6-20,31.9c-15.7,13.3-42.1,10.2-55.4-5.2
				C345.8,640.3,357,651.3,371.6,654.2z"/>
			<path fill="#8E5026" d="M279.5,654.1c23.2-4.6,37.8-29.7,30.6-65.5c-0.9-4.7-2.2-9.3-3.8-13.9c-0.1,12.8-0.3,25.5-4.5,37.9
				c-4.3,12.4-13.4,21.4-26.1,24.8c-11.7,3.1-23.7-0.2-33.8-6.6c-3.9-2.5-8.3-6.1-11.4-9.9C240.5,646.2,260,658,279.5,654.1z"/>
			<path fill="#8E5026" d="M210.5,719.6c18.1-3.6,29.5-23.1,23.9-51.1c-1.8-9-5.2-17.9-9.5-25.5c1.6,9.7,4.5,19.3,4.9,29.1
				c0.4,11.2-3.5,22.2-11.7,29.9c-8.9,8.4-22.2,6.1-32.1,1.1c-5.3-2.7-9.8-6.3-14-10.4C179.6,713.2,195,722.7,210.5,719.6z"/>
			<path fill="#8E5026" d="M440.5,719.8c18.1,3.7,36.1-9.9,41.8-37.9c3.3-16.4,1.6-34.2-4-46.7c-0.7,4-1.2,8.1-1.6,12.4
				c-0.7,8.3-1.3,16.6-2.8,24.8c-2.1,11.7-6.8,26.3-18.9,31.4c-10.8,4.5-21.5-2.3-28.4-10.3c-4-4.7-6.1-11-7.5-16.9
				c-0.8-3.1-1.5-6.1-2.1-9c-0.1,0.4-0.2,0.8-0.3,1.2C411.1,696.6,422.4,716.1,440.5,719.8z"/>
			<path fill="#8E5026" d="M277.2,830.7c12.6,0.4,24.5-2.7,34.8-8.4c8.4-4.7,18.6-4.7,27,0c10.2,5.7,22.1,8.8,34.8,8.4
				c35.7-1.1,64.5-30.5,65-66.2c0.1-6.3-0.7-12.4-2.3-18.2c-3.8,22.1-11.7,45.3-30.7,58.4c-9.8,6.7-20.4,9.7-32.3,8.3
				c-6.5-0.7-12.9-3-19.1-4.8c-7.7-2.2-15.4-3.8-23.4-4.2c-14.4-0.8-28.9,3.5-42.9,6.1c-12.9,2.4-24.7,1.4-36.9-3.2
				c-11.4-4.3-20.9-13-28.9-21.9c-3.9-4.4-7-9.3-9.5-14.5C216.1,803.4,243.5,829.6,277.2,830.7z"/>
		</g>
		<g>
			<path fill="#CB8D5A" d="M264.9,704.3c-11.4-0.3-21.3,9-27.9,17.4c-2.7,3.4-5,7-7,10.8c-4.1,6.3-7.4,13.4-9.8,20.2
				c-4.1,11.4,1.8,27.5,15.6,27.8c13.7,0.3,16.2-12.4,20.8-22.3c2.2-4.7,5.1-9,8.5-12.9c3.9-4.4,8.9-7.7,12.2-12.6
				C284.9,721.6,279.9,704.8,264.9,704.3z"/>
			<path fill="#CB8D5A" d="M304,663.7c-3.1-0.1-5.9,0.7-8.5,2c-6,0.5-12.1,4.9-15.3,9.8c-7.8,11.8,0.6,27.5,15.3,24
				c5.6-1.3,8.3-6.5,13-9.1c5.5-3.1,11.2-8.5,9-15.7C315.6,668.7,310.4,663.9,304,663.7z"/>
			<path fill="#CB8D5A" d="M251.4,601.1c-4-16.9-2-34.6,6.4-49.9c5.3-9.7-9-18.1-14.8-8.6c-11.6,19.1-15.4,42-10.2,63.7
				C235.8,618.2,254.3,613.1,251.4,601.1z"/>
			<path fill="#CB8D5A" d="M380.1,538.4c-20.8,13.4-32.7,37.7-30.4,62.5c1.2,12.6,19.7,13.1,19.9,0c0.3-18.2,8.4-35.6,21.3-48.4
				C398,545.4,388.8,532.8,380.1,538.4z"/>
			<path fill="#CB8D5A" d="M185,629.3c-11,13.8-18.4,38.6-8.5,55c3.6,5.9,12.6,3.4,12.8-3.5c0.2-7.3-1.3-14.5-0.2-21.8
				c1.1-7.4,4.1-14.1,7.8-20.5C201.1,631.3,190.5,622.4,185,629.3z"/>
			<path fill="#CB8D5A" d="M452.8,626c-12.9,7.8-22,20-25.8,34.6c-0.7,2.8-0.1,6.3,2.2,8.3c3.6,3.2,8.5,3.6,12.1,0
				c2.9-2.9,3.3-8,5-11.6c3.3-6.8,8.6-12.8,14.9-16.9C470.1,634.5,462.1,620.4,452.8,626z"/>
		</g>
	</g>
	<g>
		<g>
			<path fill="#DBB17F" d="M727.1,194.8L626.8,295.1V421c0,7,5.6,12.6,12.6,12.6h175.5c7,0,12.6-5.6,12.6-12.6V295.1L727.1,194.8z"
				/>
			<g>
				<path fill="#BC8E5C" d="M827.5,421V295.1L727.1,194.8L626.8,295.1v12.6c18.3-13.5,35.5-28,52.4-43.3
					c16.3-14.8,32.5-29.8,48.1-45.4c16,19,35.2,34.5,54.7,50c11.1,8.9,22.1,17.8,32.4,27.7c0.5,0.4,0.9,0.9,1.4,1.4
					c-2.8,22.3-1.6,45.5-2.1,67.7c-0.3,13.8-0.6,27.7-1.1,41.5c-0.2,7.2-0.6,14.5-0.7,21.7c0,1.5-0.1,3-0.2,4.6h3.3
					C821.8,433.6,827.5,428,827.5,421z"/>
			</g>
			<path fill="#603200" d="M690.2,340.7l-2.3,2.3c-9.8,9.8-15.3,23.1-15.3,37v53.7h109.2v-53.7c0-13.9-5.5-27.2-15.3-37l-2.3-2.3
				C743.7,320.2,710.6,320.2,690.2,340.7z"/>
			<path fill="#DD4B4B" d="M888.7,302.9l-61.2-61.2L754,168.3l-13.6-13.6c-7.4-7.4-19.3-7.4-26.7,0l-13.6,13.6l-73.4,73.4
				l-61.2,61.2c-7.4,7.4-7.4,19.3,0,26.7c7.4,7.4,19.3,7.4,26.7,0l34.5-34.5l100.4-100.4l100.4,100.4l34.5,34.5
				c3.7,3.7,8.5,5.5,13.3,5.5c4.8,0,9.7-1.8,13.3-5.5C896,322.2,896,310.3,888.7,302.9z"/>
		</g>
		<g>
			<path fill="#603200" d="M743.2,282.2c-1.3-0.6-2.3-1.6-2.9-2.9c-2.3-4.9-7.3-8.3-13.1-8.3c-5.8,0-10.8,3.4-13.1,8.3
				c-0.6,1.3-1.6,2.3-2.9,2.9c-5,2.3-8.4,7.4-8.3,13.3c0.1,7.7,6.3,14,14,14.3c2.7,0.1,5.3-0.6,7.5-1.8c1.8-1,4-1,5.8,0
				c2.2,1.2,4.8,1.9,7.5,1.8c7.7-0.2,13.9-6.6,14-14.3C751.6,289.6,748.1,284.5,743.2,282.2z"/>
			<path fill="#603200" d="M737,271.7c5,1,10-2.8,11.5-10.5c1.6-7.7-0.9-16.5-5.9-17.5c-5-1-10.6,6.1-12.2,13.9
				C728.9,265.3,732,270.7,737,271.7z"/>
			<path fill="#603200" d="M756.3,264c-3.9-0.8-8.3,4.8-9.5,10.8c-1.2,6,1.2,10.2,5.1,11c3.9,0.8,7.8-2.1,9-8.2
				C762.1,271.6,760.2,264.8,756.3,264z"/>
			<path fill="#603200" d="M717.2,271.7c5-1,8.1-6.4,6.6-14.1c-1.6-7.7-7.2-14.9-12.2-13.9c-5,1-7.5,9.8-5.9,17.5
				C707.3,269,712.2,272.7,717.2,271.7z"/>
			<path fill="#603200" d="M707.5,274.8c-1.2-6-5.6-11.6-9.5-10.8s-5.8,7.6-4.6,13.6c1.2,6,5.1,8.9,9,8.2
				C706.3,285,708.7,280.8,707.5,274.8z"/>
		</g>
	</g>
	<g>
		<path fill="#DBB17F" d="M1122.8,719.3l82.2-82.2c18.3,18.3,48,18.3,66.3,0c18.3-18.3,18.3-48,0-66.3c-13.4-13.4-32.8-17-49.4-10.8
			c6.2-16.6,2.6-36.1-10.8-49.4c-18.3-18.3-48-18.3-66.3,0c-18.3,18.3-18.3,48,0,66.3l-82.2,82.2c-18.3-18.3-48-18.3-66.3,0
			c-18.3,18.3-18.3,48,0,66.3c13.4,13.4,32.8,17,49.4,10.8c-6.2,16.6-2.6,36.1,10.8,49.4c18.3,18.3,48,18.3,66.3,0
			C1141.1,767.3,1141.1,737.6,1122.8,719.3z"/>
		<g>
			<path fill="#C19565" d="M1122.8,719.3l82.2-82.2c18.3,18.3,48,18.3,66.3,0c18.3-18.3,18.3-48,0-66.3c-2.2-2.2-4.5-4.1-7-5.8
				c12.3,18.2,10.4,43.2-5.7,59.3c-18.3,18.3-48,18.3-66.3,0l-82.2,82.2c18.3,18.3,18.3,48,0,66.3c-16.1,16.1-41.1,18-59.3,5.7
				c1.7,2.5,3.6,4.8,5.8,7c18.3,18.3,48,18.3,66.3,0C1141.1,767.3,1141.1,737.6,1122.8,719.3z"/>
		</g>
		<g>
			<path fill="#C19565" d="M1172.6,532.2c0.2,0,0.3,0,0.5,0c1.6-0.1,3-0.8,3.9-2.3c1-1.7,0.7-4-0.7-5.4c-1.1-1.1-2.8-1.6-4.3-1.2
				c-0.8,0.2-1.5,0.6-2,1.2c-0.9,0.9-1.2,1.9-1.3,3.2c0,0.2,0,0.3,0,0.5C1168.4,530.2,1170.5,532.3,1172.6,532.2z"/>
			<path fill="#C19565" d="M1180.4,546.8c-3.3-3.3-8.5,1.8-5.2,5.2C1178.6,555.3,1183.7,550.1,1180.4,546.8z"/>
			<path fill="#C19565" d="M1195.1,540c0.2,0.6,0.5,1.2,0.9,1.6c0.3,0.7,0.9,1.3,1.6,1.7c0.9,0.5,1.9,0.6,2.9,0.4
				c1.4-0.4,2.3-1.4,2.8-2.8c0.6-1.8-0.4-4.1-2-4.9c-1.3-0.7-3.2-0.8-4.5,0.1c-0.6,0.3-1,0.8-1.3,1.3
				C1195,538.2,1194.8,539.1,1195.1,540z"/>
			<path fill="#C19565" d="M1172.7,586.9c0.2,0,0.4-0.1,0.6-0.1c3.4-0.8,4.5-5.3,2.1-7.6c-2.4-2.4-6.9-1.3-7.6,2.1
				c0,0.2-0.1,0.4-0.1,0.6c-0.3,1.5,0,3,1.1,4C1169.8,586.9,1171.3,587.2,1172.7,586.9z"/>
			<path fill="#C19565" d="M1221.5,603.6c0-2.9-2.9-5.3-5.8-4.4c-0.5,0.2-1.1,0.3-1.6,0.6c-1.3,0.8-2.2,2.2-2.2,3.8
				c0,1.6,0.9,3,2.2,3.8c0.5,0.3,1,0.5,1.6,0.6C1218.6,608.8,1221.5,606.5,1221.5,603.6z"/>
			<path fill="#C19565" d="M1240.9,595.3c0.3,0.2,0.7,0.4,1,0.6c1.2,0.7,2.5,1,3.8,0.6c1-0.3,1.8-0.9,2.3-1.8c0.4-0.8,0.7-2,0.4-2.8
				c-0.3-0.7-0.5-1.6-1.2-2.1c-0.4-0.3-0.7-0.7-1.2-0.9c-0.4-0.2-0.8-0.3-1.2-0.5c-1-0.4-1.9-0.7-3-0.4c-1,0.3-1.9,1-2.5,1.9
				C1238.3,591.7,1239,594.1,1240.9,595.3z"/>
			<path fill="#C19565" d="M1205.1,579.1c0.7,1.3,1.7,2.4,2.7,3.5c1.5,1.7,4.5,1.6,6,0c1.6-1.6,1.7-4.5,0-6c-1.1-1-2.2-2-3.5-2.7
				c-1.5-0.8-3.4-0.6-4.6,0.6C1204.5,575.7,1204.2,577.6,1205.1,579.1z"/>
			<path fill="#C19565" d="M1188.4,606.4c-0.8,0.2-1.6,0.6-2.2,1.3c-1,0.7-1.6,2-1.9,3.2c-0.3,1.6,0,3.1,1.2,4.3
				c1.2,1.2,2.7,1.5,4.3,1.2c1.2-0.2,2.5-0.9,3.2-1.9c0.3-0.3,0.5-0.7,0.8-1c0.4-0.7,0.6-1.5,0.6-2.4c0-1.3-0.5-2.5-1.4-3.4
				c-0.9-0.9-2.1-1.4-3.4-1.4C1189.2,606.3,1188.8,606.4,1188.4,606.4z"/>
			<path fill="#C19565" d="M1136.5,608.2c-1.1-1.8-2.9-2.8-5-2.8c-0.9,0-2,0.2-2.7,0.8c-0.4,0.3-0.8,0.5-1.1,0.9
				c-0.7,0.9-0.8,1.1-1.2,2.1c-0.2,0.7-0.2,1.3,0,2c0.3,1,0.9,1.9,1.8,2.4c0.9,0.5,1.9,0.6,2.9,0.3c1.1,0.6,2.5,0.6,3.7-0.1
				C1136.8,612.7,1137.6,610.1,1136.5,608.2z"/>
			<path fill="#C19565" d="M1148.7,642.1c1.2,0.4,2.7,0.1,3.8-0.5c0.3-0.2,0.6-0.5,0.9-0.7c0.5-0.3,0.9-0.8,1.1-1.3
				c0.6-1.3,0.8-2.4,0.5-3.8c-0.2-0.9-0.9-2-1.6-2.6c-0.9-0.8-1.1-0.8-2.2-1.3c-0.5-0.2-1-0.2-1.5-0.2c-1.3,0-2.8,0.6-3.7,1.6
				c-0.9,1-1.5,2.2-1.4,3.6c0,0.3,0.1,1,0.2,1.4c0.5,1.2,0.5,1.2,1.3,2.2C1146.7,641.4,1147.8,641.9,1148.7,642.1z M1149.3,634
				C1149.2,634,1149.2,634,1149.3,634C1149.2,634,1149.2,634,1149.3,634C1149.2,634,1149.2,634,1149.3,634z"/>
			<path fill="#C19565" d="M1155,612.7c3.9,3.9,9.9-2.1,6-6C1157.1,602.8,1151.1,608.8,1155,612.7z"/>
			<path fill="#C19565" d="M1094.8,643.5c-0.6,0-1.3,0-1.9,0c-2.1,0-3.9,1.8-3.9,3.9c0,2.1,1.8,3.9,3.9,3.9c0.6,0,1.3,0,1.9,0
				c2.1,0,3.9-1.8,3.9-3.9C1098.7,645.3,1096.9,643.5,1094.8,643.5z"/>
			<path fill="#C19565" d="M1110.9,689.9c0.7-2.2-0.5-4.5-2.4-5.6c-2.2-1.2-5.1-0.5-6.4,1.6c-1.1,1.8-0.6,4.1,0.8,5.6
				c1,1.1,2.7,1.6,4.1,1.3C1108.8,692.8,1110.4,691.7,1110.9,689.9z M1103.2,688c0-0.1,0-0.2,0-0.2c0.1-0.3,0.2-0.5,0.3-0.8
				C1103.4,687.3,1103.3,687.6,1103.2,688z"/>
			<path fill="#C19565" d="M1129.4,665c0.5-0.5,0.9-1,1.4-1.4c1.4-1.4,1.4-3.6,0-5s-3.6-1.4-5,0c-0.5,0.5-1,0.9-1.4,1.4
				c-1.4,1.4-1.4,3.7,0,5.1C1125.7,666.4,1128.1,666.4,1129.4,665z"/>
			<path fill="#C19565" d="M1092.4,673.3c0.7-0.7,1.1-1.7,1.1-2.8c0-0.9-0.4-2.2-1.1-2.8c-0.2-0.1-0.4-0.3-0.5-0.4
				c-0.8-0.7-1.6-1.1-2.7-1.1c-1,0-2,0.4-2.7,1.1c-0.7,0.7-1.1,1.7-1.1,2.7c0,1.1,0.5,1.9,1.1,2.7c0.1,0.2,0.3,0.4,0.4,0.5
				c0.6,0.8,1.8,1.1,2.8,1.1C1090.7,674.4,1091.7,674,1092.4,673.3z"/>
			<path fill="#C19565" d="M1032.7,675.6c-0.6-0.6-1.3-1.3-1.9-1.9c-1.6-1.6-4.2-1.6-5.8,0c-1.6,1.6-1.6,4.2,0,5.8
				c0.6,0.6,1.3,1.3,1.9,1.9c1.6,1.6,4.2,1.6,5.8,0C1034.2,679.8,1034.2,677.2,1032.7,675.6z"/>
			<path fill="#C19565" d="M1088.6,740.4c-4.1-4.1-10.4,2.3-6.3,6.3C1086.3,750.8,1092.7,744.5,1088.6,740.4z"/>
			<path fill="#C19565" d="M1077.7,766c0.1-0.2,0.3-0.4,0.4-0.5c0.2-0.3,0.5-0.6,0.7-0.9c0.4-0.7,0.6-1.4,0.6-2.1
				c0-1.1-0.5-2.2-1.3-3.1c-0.8-0.8-1.9-1.3-3.1-1.3c-0.4,0-0.7,0.1-1.1,0.1c-0.8,0.2-1.4,0.6-2,1.1c-0.2,0.1-0.4,0.3-0.5,0.4
				c-0.9,0.7-1.3,2.1-1.3,3.1c0,1.2,0.5,2.3,1.3,3.1c0.8,0.8,2,1.3,3.1,1.3C1075.6,767.3,1077,766.9,1077.7,766z"/>
			<path fill="#C19565" d="M1062.4,706.2c-1-0.2-2-0.4-3-0.5c-1.3-0.2-2.3-0.3-3.5,0.4c-1.6,1-2.4,3.2-1.3,4.9
				c0.4,0.7,1,1.3,1.7,1.7c0.6,0.3,1.3,0.5,1.9,0.7c0.7,0.3,1.5,0.5,2.2,0.7c2.1,0.6,4.4-0.8,4.9-2.9
				C1065.8,709.1,1064.6,706.6,1062.4,706.2z"/>
			<path fill="#C19565" d="M1093.5,711.9c-3.8-3.8-9.7,2.1-5.9,5.9C1091.4,721.6,1097.4,715.7,1093.5,711.9z"/>
			<path fill="#C19565" d="M1056.5,675c-0.8,0.8-1.2,1.9-1.2,3c0,1.1,0.5,2.2,1.2,3c0.7,0.7,2,1.4,3,1.2c0.9-0.1,1.8-0.2,2.6-0.7
				c2.7-1.6,2.7-5.6,0-7.2c-0.8-0.5-1.7-0.6-2.6-0.7C1058.4,673.7,1057.2,674.3,1056.5,675z"/>
			<path fill="#C19565" d="M1030.5,708.9c-0.9-0.9-1.9-1.2-3.1-1.3c-0.3,0-0.6,0-0.9-0.1c-2.4-0.1-4.4,2.1-4.4,4.4
				c0,2.3,2,4.5,4.4,4.4c0.3,0,0.6,0,0.9-0.1c1.2-0.1,2.2-0.4,3.1-1.3c0.8-0.8,1.3-1.9,1.3-3.1
				C1031.8,710.8,1031.3,709.7,1030.5,708.9z"/>
			<path fill="#C19565" d="M1002.7,685.3c0.1-2.1-1.5-4.1-3.5-4.6c-1-0.2-2-0.1-2.8,0.4c0,0,0,0-0.1,0c-1,0.3-1.7,0.9-2.3,1.7
				c-0.9,1.4-0.8,3.4,0,4.7c0.5,0.8,1.1,1.3,1.8,1.8c1.1,0.6,2.2,0.6,3.3,0.4c1.2-0.2,2.1-1.1,2.7-2
				C1002.5,687,1002.7,686.1,1002.7,685.3z"/>
			<path fill="#C19565" d="M1035.9,700.7c3.7,3.7,9.4-2,5.7-5.7S1032.2,697,1035.9,700.7z"/>
		</g>
	</g>
	<g>
		<circle fill="#DD4B4B" cx="746.5" cy="705.5" r="98.9"/>
		<g>
			<path fill="#E8C325" d="M845.1,699.4c-26.2,15.7-60.8,25.2-98.7,25.2s-72.5-9.5-98.7-25.2c-0.1,2-0.2,4.1-0.2,6.1
				c0,5.3,0.4,10.4,1.2,15.5c26.1,15.3,60.2,24.6,97.7,24.6s71.6-9.3,97.7-24.6c0.8-5,1.2-10.2,1.2-15.5
				C845.3,703.4,845.3,701.4,845.1,699.4z"/>
		</g>
		<g>
			<path fill="#CC3333" d="M833.5,705.6c4-2,7.9-4.1,11.6-6.3c-0.9-14.8-5.1-28.7-11.8-41c1.9,7.7,2.9,15.7,2.9,23.9
				C836.3,690.3,835.4,698.2,833.5,705.6z"/>
			<path fill="#CC3333" d="M737.4,781.2c-37.5,0-70.2-20.9-86.9-51.7c10.7,43,49.6,74.9,96,74.9c49.4,0,90.3-36.2,97.7-83.4
				c-6.4,3.8-13.4,7.2-20.7,10.2C806.4,761,774.3,781.2,737.4,781.2z"/>
			<path fill="#D7B110" d="M844.7,716.9c0.1-1.2,0.3-2.4,0.4-3.6c0,0,0,0,0,0c0.1-1.2,0.2-2.3,0.2-3.5c0-0.2,0-0.5,0-0.7
				c0-1.2,0.1-2.3,0.1-3.5c0,0,0,0,0,0c0-1,0-2,0-3c0-0.1,0-0.1,0-0.2c0-1-0.1-1.9-0.1-2.9c0,0,0,0,0,0c-3.7,2.2-7.6,4.3-11.6,6.3
				c-2.2,9.1-5.6,17.6-10.1,25.5c7.4-3,14.3-6.4,20.7-10.2c0,0,0,0,0,0c0.2-1.2,0.4-2.4,0.5-3.6
				C844.7,717.2,844.7,717.1,844.7,716.9z"/>
		</g>
		<g>
			<path fill="#F7AAAA" d="M687,656.8c-1.8,0-3.6-0.7-5-2c-2.9-2.8-3.1-7.4-0.3-10.3c14.3-15.2,30.9-25,47.9-28.5
				c3.9-0.8,7.8,1.7,8.6,5.7c0.8,3.9-1.7,7.8-5.7,8.6c-17.7,3.7-31.7,15.2-40.2,24.3C690.9,656,689,656.8,687,656.8z"/>
		</g>
		<g>
			<path fill="#F7AAAA" d="M671.9,676.6c-1.2,0-2.5-0.3-3.6-1c-3.5-2-4.7-6.5-2.7-9.9c1.5-2.7,3.4-5.5,5.6-8.5
				c2.4-3.2,6.9-3.9,10.2-1.6c3.2,2.4,3.9,6.9,1.6,10.2c-1.9,2.6-3.4,4.9-4.7,7.1C676.9,675.3,674.4,676.6,671.9,676.6z"/>
		</g>
	</g>
</g>
</svg>
